<svg width="1920" height="1080" viewBox="0 0 1920 1080" fill="none" xmlns="http://www.w3.org/2000/svg">
<g clip-path="url(#clip0_1104_128)">
<rect width="1920" height="1080" fill="white"/>
<g filter="url(#filter0_d_1104_128)">
<rect width="1920" height="1080" fill="#212121"/>
</g>
<ellipse cx="960" cy="612" rx="960" ry="540" fill="url(#paint0_radial_1104_128)"/>
<path d="M1561.56 561.196C1555.9 561.196 1550.27 559.709 1545.3 556.848L1493.54 526.198C1485.81 521.874 1489.58 520.345 1492.13 519.463C1502.44 515.853 1504.53 515.038 1515.53 508.789C1516.69 508.129 1518.2 508.362 1519.39 509.061L1559.15 532.661C1560.59 533.438 1562.63 533.438 1563.96 532.661L1719.01 443.149C1720.44 442.334 1721.37 440.665 1721.37 438.957V260.011C1721.37 258.226 1720.44 256.634 1718.98 255.741L1563.99 166.307C1562.55 165.453 1560.65 165.453 1559.21 166.307L1404.26 255.741C1402.76 256.595 1401.8 258.264 1401.8 259.972V438.918C1401.8 440.626 1402.73 442.257 1404.21 443.072L1446.67 467.604C1469.72 479.133 1483.81 465.547 1483.81 451.883V275.266C1483.81 272.743 1485.79 270.802 1488.31 270.802H1507.95C1510.39 270.802 1512.41 272.743 1512.41 275.266V451.961C1512.41 482.704 1495.65 500.366 1466.5 500.366C1457.53 500.366 1450.47 500.366 1430.75 490.661L1390.08 467.216C1380.03 461.393 1373.82 450.525 1373.82 438.918V259.972C1373.82 248.327 1380.03 237.459 1390.08 231.714L1545.29 142.163C1555.1 136.612 1568.14 136.612 1577.89 142.163L1732.9 231.753C1742.91 237.536 1749.16 248.366 1749.16 260.011V438.957C1749.16 450.563 1742.91 461.393 1732.9 467.216L1577.89 556.767C1572.92 559.639 1567.29 561.114 1561.55 561.114" fill="#449232"/>
<path d="M1609.45 437.886C1541.61 437.886 1527.39 406.74 1527.39 380.616C1527.39 378.132 1529.39 376.152 1531.88 376.152H1551.91C1554.12 376.152 1555.98 377.763 1556.33 379.948C1559.36 400.358 1568.36 410.652 1609.39 410.652C1642.06 410.652 1655.96 403.269 1655.96 385.938C1655.96 375.962 1652 368.548 1601.23 363.579C1558.78 359.387 1532.54 350.032 1532.54 316.067C1532.54 284.781 1558.93 266.149 1603.14 266.149C1652.78 266.149 1677.38 283.383 1680.49 320.415C1680.6 321.696 1680.14 322.938 1679.28 323.869C1678.43 324.762 1677.23 325.306 1675.98 325.306H1655.84C1653.75 325.306 1651.92 323.831 1651.49 321.812C1646.64 300.346 1634.92 293.476 1603.06 293.476C1567.39 293.476 1563.24 305.897 1563.24 315.213C1563.24 326.509 1568.13 329.808 1616.25 336.174C1663.91 342.502 1686.54 351.429 1686.54 384.928C1686.54 418.699 1658.36 438.069 1609.23 438.069M1798.08 248.293H1803.28C1807.55 248.293 1808.37 245.304 1808.37 243.557C1808.37 238.977 1805.22 238.977 1803.48 238.977H1798.12L1798.08 248.293ZM1791.76 233.62H1803.28C1807.24 233.62 1815 233.62 1815 242.47C1815 248.642 1811.05 249.923 1808.68 250.7C1813.3 251.01 1813.61 254.038 1814.23 258.308C1814.54 260.986 1815.04 265.605 1815.98 267.158H1808.87C1808.68 265.605 1807.59 257.066 1807.59 256.6C1807.13 254.698 1806.47 253.766 1804.1 253.766H1798.24V267.197H1791.76V233.62ZM1777.9 250.311C1777.9 264.208 1789.12 275.465 1802.9 275.465C1816.79 275.465 1828.01 263.975 1828.01 250.311C1828.01 236.376 1816.63 225.313 1802.86 225.313C1789.27 225.313 1777.86 236.221 1777.86 250.273M1832.82 250.389C1832.82 266.847 1819.35 280.278 1802.93 280.278C1786.63 280.278 1773.05 267.003 1773.05 250.389C1773.05 233.465 1786.94 220.5 1802.93 220.5C1819.04 220.5 1832.78 233.504 1832.78 250.389" fill="#449232"/>
<path d="M542.485 493.231V253.563H555.475V291.263C557.009 289.591 558.425 287.816 559.715 285.949C570.564 263.422 593.446 249.206 618.428 249.486C648.044 248.602 672.111 259.574 686.254 285.949C695.254 302.334 700.206 320.636 700.698 339.327C701.19 358.018 697.206 376.555 689.081 393.391C675.904 422.948 643.357 437.643 608.514 432.246C597.67 431.323 587.23 427.697 578.147 421.698C569.064 415.7 561.626 407.52 556.514 397.905V493.221L542.485 493.231ZM555.475 338.344L558.385 366.486C563.518 398.518 582.441 417.446 612.151 421.003C626.103 423.299 640.419 420.681 652.658 413.596C664.897 406.511 674.303 395.397 679.271 382.149C690.826 354.589 689.974 323.389 676.985 296.474C671.682 284.598 662.661 274.772 651.285 268.481C639.909 262.189 626.796 259.775 613.928 261.602C601.849 262.482 590.344 267.104 581.01 274.828C571.676 282.551 564.978 292.992 561.845 304.7C559.079 315.78 556.952 327.009 555.475 338.334V338.344ZM965.925 370.917C963.955 387.792 955.928 403.376 943.337 414.772C930.747 426.167 914.449 432.599 897.475 432.87C843.002 435.615 817.438 399.413 813.375 357.636C810.55 334.949 814.23 311.926 823.985 291.253C830.775 277.071 841.9 265.421 855.748 257.99C869.596 250.56 885.448 247.734 901.008 249.923C915.801 251.181 929.823 257.064 941.091 266.737C952.358 276.411 960.301 289.386 963.795 303.826C966.562 316.981 968.598 330.278 969.895 343.658H826.832C824.183 381.535 844.519 411.986 873.346 419.329C909.249 428.169 939.935 412.6 951.075 378.436C953.548 369.669 958.059 368.431 966.019 370.917H965.925ZM826.729 331.532H954.692C953.891 291.18 928.785 261.852 894.732 261.519C856.283 260.895 828.402 289.048 826.729 331.532ZM992.372 371.801H1004.91C1005.38 381.049 1008.38 389.99 1013.59 397.642C1018.8 405.293 1026.02 411.358 1034.45 415.169C1045.04 419.937 1056.56 422.255 1068.17 421.949C1079.77 421.643 1091.16 418.721 1101.48 413.401C1107.11 410.865 1111.82 406.662 1114.99 401.36C1118.15 396.057 1119.61 389.91 1119.17 383.75C1119.49 377.81 1117.87 371.925 1114.55 366.989C1111.24 362.053 1106.4 358.335 1100.78 356.398C1086.98 351.261 1072.3 348.432 1058.24 343.918C1043.61 339.75 1029.31 334.515 1015.44 328.256C992.787 317.19 991.385 274.093 1017.03 260.448C1030.16 253.032 1044.94 249.025 1060.02 248.792C1075.1 248.56 1089.99 252.109 1103.34 259.117C1119.91 268.269 1129.06 286.75 1126.34 305.501H1115.59C1115.59 304.981 1114.61 304.523 1114.61 303.993C1113.28 269.673 1084.45 258.94 1053.51 261.956C1044.15 262.996 1035.29 265.825 1026.98 270.006C1021.98 272.29 1017.81 276.072 1015.06 280.828C1012.3 285.585 1011.09 291.082 1011.6 296.557C1011.61 302.036 1013.31 307.378 1016.48 311.847C1019.65 316.317 1024.12 319.695 1029.28 321.517C1042.79 326.478 1057.13 329.66 1071.11 333.55L1104.88 342.39C1112.56 344.911 1119.29 349.705 1124.18 356.138C1129.08 362.571 1131.91 370.339 1132.3 378.415C1135 396.563 1125.75 414.399 1109.39 422.667C1079.86 439.39 1031.22 434.97 1009.55 413.827C998.461 402.668 992.278 387.515 992.403 371.79L992.372 371.801ZM1291.44 305.511H1279.68C1279.68 303.92 1279.06 302.391 1278.88 301.174C1278.69 292.35 1275.48 283.858 1269.78 277.123C1264.08 270.387 1256.24 265.818 1247.57 264.182C1231.22 259.489 1213.78 260.33 1197.96 266.574C1191.7 268.365 1186.2 272.136 1182.26 277.321C1178.32 282.506 1176.17 288.828 1176.12 295.34C1175.89 301.734 1177.88 308.01 1181.75 313.106C1185.62 318.202 1191.12 321.805 1197.34 323.306L1251.1 337.117C1256.92 338.512 1262.64 340.256 1268.25 342.338C1285.4 348.578 1297.03 364.51 1297.55 382.721C1297.81 391.634 1295.37 400.417 1290.55 407.916C1285.72 415.415 1278.75 421.278 1270.54 424.737C1258.06 430.41 1244.53 433.412 1230.83 433.549C1217.12 433.687 1203.54 430.958 1190.95 425.538C1180.59 421.069 1171.85 413.533 1165.91 403.944C1159.96 394.355 1157.1 383.174 1157.69 371.905H1169.19C1173.51 392.757 1187.82 410.125 1207.45 418.341C1227.08 426.557 1249.49 424.539 1267.35 412.974C1272.7 410.187 1277.15 405.921 1280.16 400.683C1283.17 395.445 1284.61 389.453 1284.33 383.418C1284.59 377.473 1282.91 371.603 1279.55 366.699C1276.18 361.795 1271.3 358.123 1265.66 356.242C1251.86 351.105 1237.19 348.37 1223.13 343.762C1208.42 339.658 1194.02 334.482 1180.07 328.277C1157.95 317.388 1156.19 274.644 1181.4 261.01C1194.69 253.282 1209.76 249.131 1225.13 248.959C1240.5 248.788 1255.66 252.603 1269.12 260.032C1276.82 264.631 1283.02 271.372 1286.96 279.434C1290.9 287.496 1292.42 296.531 1291.32 305.438L1291.44 305.511ZM521.11 428.543C516.479 430.295 511.368 430.291 506.741 428.53C502.114 426.769 498.29 423.374 495.993 418.986L450.27 355.702L443.64 346.862L390.58 419.079C388.417 423.279 384.801 426.547 380.406 428.274C376.012 430 371.14 430.066 366.7 428.46L435.056 336.68L371.459 253.75C380.895 250.339 391.411 254.042 396.659 262.59L444.045 326.654L491.712 262.84C493.89 258.712 497.509 255.529 501.879 253.898C506.25 252.266 511.067 252.299 515.415 253.99L490.735 286.76L457.305 330.305C456.377 331.134 455.635 332.15 455.126 333.286C454.618 334.422 454.355 335.653 454.355 336.898C454.355 338.143 454.618 339.374 455.126 340.51C455.635 341.647 456.377 342.663 457.305 343.492L520.975 428.543H521.11ZM811.349 252.866V265.346C802.405 264.759 793.437 266.056 785.024 269.152C776.611 272.248 768.94 277.075 762.507 283.321C756.073 289.568 751.02 297.095 747.673 305.417C744.326 313.739 742.76 322.671 743.076 331.636C743.076 360.784 743.076 389.931 743.076 419.079V428.99H730.429V253.646H742.899V289.578C758.196 263.37 781.805 253.646 811.432 252.939L811.349 252.866ZM203.021 335.536L208.591 308.007C223.887 253.574 286.237 230.922 329.134 264.639C354.251 284.378 360.517 312.344 359.291 343.856H217.787C215.501 400.141 256.081 434.128 307.987 416.781C325.092 410.541 337.967 396.314 342.207 378.634C344.95 369.794 349.481 368.275 357.773 370.834C356.39 381.609 352.584 391.931 346.641 401.022C340.698 410.114 332.772 417.738 323.46 423.322C308.076 431.743 290.425 435.079 273.032 432.854C255.639 430.629 239.394 422.958 226.62 410.936C213.984 396.719 206.357 378.748 204.871 359.768C204.871 356.648 203.831 353.736 203.104 350.928C203.035 345.679 203 340.549 203 335.536H203.021ZM217.964 331.73H345.927C345.127 290.93 319.397 261.987 285.084 261.717C246.884 261.197 219.554 289.506 217.87 331.553L217.964 331.73Z" fill="#DEDEDE"/>
<path d="M261.11 917V654.035H295.053V917H261.11ZM457.786 917L352.6 654.035H385.797L490.983 917H457.786ZM346.259 917V654.035H380.202V917H346.259ZM466.738 917V654.035H500.681V917H466.738ZM551.788 917V654.035H585.731V917H551.788ZM619.467 683.502V654.035H774.262V683.502H619.467ZM679.893 917V654.035H713.836V917H679.893ZM807.861 917V654.035H841.804V917H807.861ZM916.943 864.407V835.313H1012.43V864.407H916.943ZM976.996 654.035L912.84 917H879.27L943.426 654.035H976.996ZM977.742 654.035L1041.9 917H1008.7L944.172 654.035H977.742ZM1048.2 683.502V654.035H1202.99V683.502H1048.2ZM1108.62 917V654.035H1142.57V917H1108.62ZM1236.59 917V654.035H1270.54V917H1236.59ZM1430.72 852.844V717.818H1464.66V852.844H1430.72ZM1317.33 852.844V717.818H1351.27V852.844H1317.33ZM1464.66 718.191H1430.72C1430.72 705.26 1427.11 695.314 1419.9 688.351C1412.94 681.388 1403.24 677.907 1390.81 677.907V648.44C1405.48 648.44 1418.29 651.424 1429.23 657.392C1440.42 663.111 1449.12 671.317 1455.34 682.01C1461.55 692.454 1464.66 704.514 1464.66 718.191ZM1317.33 718.191C1317.33 704.514 1320.43 692.454 1326.65 682.01C1332.87 671.317 1341.57 663.111 1352.76 657.392C1363.95 651.424 1376.76 648.44 1391.18 648.44V677.907C1378.75 677.907 1368.92 681.388 1361.71 688.351C1354.75 695.314 1351.27 705.26 1351.27 718.191H1317.33ZM1464.66 852.471C1464.66 866.396 1461.55 878.581 1455.34 889.025C1449.12 899.469 1440.42 907.675 1429.23 913.643C1418.29 919.611 1405.48 922.595 1390.81 922.595V893.128C1403.24 893.128 1412.94 889.647 1419.9 882.684C1427.11 875.473 1430.72 865.402 1430.72 852.471H1464.66ZM1317.33 852.471H1351.27C1351.27 865.402 1354.75 875.473 1361.71 882.684C1368.92 889.647 1378.75 893.128 1391.18 893.128V922.595C1376.76 922.595 1363.95 919.611 1352.76 913.643C1341.57 907.675 1332.87 899.469 1326.65 889.025C1320.43 878.581 1317.33 866.396 1317.33 852.471ZM1619.04 917L1513.85 654.035H1547.05L1652.24 917H1619.04ZM1507.51 917V654.035H1541.46V917H1507.51ZM1627.99 917V654.035H1661.93V917H1627.99Z" fill="#ED5838"/>
<path d="M235 963.625H1684.31V982.275H235V963.625Z" fill="#ED5838"/>
</g>
<defs>
<filter id="filter0_d_1104_128" x="-5" y="-10" width="1940" height="1100" filterUnits="userSpaceOnUse" color-interpolation-filters="sRGB">
<feFlood flood-opacity="0" result="BackgroundImageFix"/>
<feColorMatrix in="SourceAlpha" type="matrix" values="0 0 0 0 0 0 0 0 0 0 0 0 0 0 0 0 0 0 127 0" result="hardAlpha"/>
<feOffset dx="5"/>
<feGaussianBlur stdDeviation="5"/>
<feComposite in2="hardAlpha" operator="out"/>
<feColorMatrix type="matrix" values="0 0 0 0 0 0 0 0 0 0 0 0 0 0 0 0 0 0 0.75 0"/>
<feBlend mode="normal" in2="BackgroundImageFix" result="effect1_dropShadow_1104_128"/>
<feBlend mode="normal" in="SourceGraphic" in2="effect1_dropShadow_1104_128" result="shape"/>
</filter>
<radialGradient id="paint0_radial_1104_128" cx="0" cy="0" r="1" gradientUnits="userSpaceOnUse" gradientTransform="translate(960 612) rotate(89.8989) scale(540.001 960)">
<stop stop-color="#A2E9FF" stop-opacity="0.35"/>
<stop offset="1" stop-color="#3242D5" stop-opacity="0"/>
</radialGradient>
<clipPath id="clip0_1104_128">
<rect width="1920" height="1080" fill="white"/>
</clipPath>
</defs>
</svg>
